<svg version="1.1" xmlns="http://www.w3.org/2000/svg" xmlns:xlink="http://www.w3.org/1999/xlink" preserveAspectRatio="xMidYMid meet" viewBox="0 0 840 640" width="300" height="100">

    <path fill="green" stroke="black" opacity="1" fill-opacity="1" d="M5 302L61 302L61 498L5 498L5 302Z"></path>
    <path fill="green" stroke="black" opacity="1" fill-opacity="1" d="M39 302L448 302L448 498L391 498L391 302Z"></path>
    <path fill="green" stroke="black" opacity="1" fill-opacity="1" d="M67 302L124 302L124 498L67 498L67 302Z"></path>
    <path fill="green" stroke="black" opacity="1" fill-opacity="1" d="M132 302L189 302L189 498L132 498L132 302Z"></path>
    <path fill="green" stroke="black" opacity="1" fill-opacity="1" d="M195 302L252 302L252 498L195 498L195 302Z"></path>
    <path fill="green" stroke="black" opacity="1" fill-opacity="1" d="M259 302L316 302L316 498L259 498L259 302Z"></path>
    <path fill="green" stroke="black" opacity="1" fill-opacity="1" d="M325 302L382 302L382 498L325 498L325 302Z"></path>
    <path fill="green" stroke="black" opacity="1" fill-opacity="1" d="M453 302L510 302L510 498L453 498L453 302Z"></path>
    <path fill="green" stroke="black" opacity="1" fill-opacity="1" d="M519 302L575 302L575 498L519 498L519 302Z"></path>
    <path fill="green" stroke="black" opacity="1" fill-opacity="1" d="M583 302L640 302L640 498L583 498L583 302Z"></path>
</svg>